<svg width="35" height="35" viewBox="0 0 35 35" fill="none" xmlns="http://www.w3.org/2000/svg">
<path d="M21.4413 20.293C22.1862 18.1592 22.1862 15.8358 21.4413 13.7021L21.4119 13.6236C20.7159 11.6843 19.4383 10.0073 17.7537 8.82177C16.0691 7.63624 14.0597 7 12 7C9.94033 7 7.93091 7.63624 6.24631 8.82177C4.56171 10.0073 3.28413 11.6843 2.58813 13.6236L2.55872 13.7021C1.81376 15.8358 1.81376 18.1592 2.55872 20.293L2.58813 20.3715C3.28312 22.3112 4.55983 23.9888 6.24381 25.1752C7.92779 26.3616 9.93689 26.9989 11.9966 27C14.0562 27.0011 16.066 26.3659 17.7512 25.1812C19.4364 23.9966 20.7149 22.3202 21.4119 20.3813L21.4413 20.293ZM9.22546 20.7246H14.7745C14.2157 22.5194 13.2647 24.128 12 25.3638C10.7353 24.128 9.78429 22.5194 9.22546 20.7246ZM8.93134 19.5476C8.57829 17.8659 8.57829 16.1292 8.93134 14.4475H15.0687C15.4217 16.1292 15.4217 17.8659 15.0687 19.5476H8.93134ZM3.17638 16.9975C3.17433 16.1338 3.29987 15.2745 3.54893 14.4475H7.72544C7.41164 16.133 7.41164 17.8621 7.72544 19.5476H3.54893C3.29987 18.7206 3.17433 17.8613 3.17638 16.9975ZM14.7745 13.2705H9.22546C9.78429 11.4756 10.7353 9.86713 12 8.63133C13.2647 9.86713 14.2157 11.4756 14.7745 13.2705ZM16.2844 14.4475H20.4511C20.9481 16.1112 20.9481 17.8839 20.4511 19.5476H16.2844C16.585 17.8609 16.585 16.1342 16.2844 14.4475ZM20.0001 13.2705H16.0098C15.5072 11.4099 14.5696 9.6954 13.2745 8.26843C14.7219 8.47994 16.0941 9.04771 17.268 9.92077C18.4419 10.7938 19.3807 11.9449 20.0001 13.2705ZM10.7255 8.26843C9.43038 9.6954 8.49285 11.4099 7.99015 13.2705H3.99991C4.61933 11.9449 5.55811 10.7938 6.73199 9.92077C7.90587 9.04771 9.2781 8.47994 10.7255 8.26843ZM3.99991 20.7246H7.99015C8.4949 22.5873 9.43209 24.3045 10.7255 25.7365C9.27826 25.5206 7.90686 24.9501 6.73343 24.0756C5.55999 23.2012 4.62094 22.05 3.99991 20.7246ZM13.2745 25.7365C14.5679 24.3045 15.5051 22.5873 16.0098 20.7246H20.0001C19.3791 22.05 18.44 23.2012 17.2666 24.0756C16.0931 24.9501 14.7217 25.5206 13.2745 25.7365Z" fill="#F5F5F5"/>
<path d="M32 15H26L29 20" fill="#F5F5F5"/>
</svg>
