<svg width="148" height="24" viewBox="0 0 148 24" fill="none" xmlns="http://www.w3.org/2000/svg">
<path d="M21 5V19C21 20.1046 20.1046 21 19 21H15.25C14.9739 21 14.75 20.7761 14.75 20.5V14.5H17.09C17.3276 14.5 17.5325 14.3328 17.58 14.1L17.94 12.3C17.9549 12.2273 17.9366 12.1517 17.8903 12.0938C17.8439 12.0358 17.7742 12.0015 17.7 12H14.75V8.75C14.75 8.61193 14.8619 8.5 15 8.5H17.5C17.7761 8.5 18 8.27614 18 8V6.5C18 6.22386 17.7761 6 17.5 6H15C13.3431 6 12 7.34315 12 9V12H10.77C10.4939 12 10.27 12.2239 10.27 12.5V14C10.27 14.2761 10.4939 14.5 10.77 14.5H12V20.5C12 20.7761 11.7761 21 11.5 21H5C3.89543 21 3 20.1046 3 19V5C3 3.89543 3.89543 3 5 3H19C20.1046 3 21 3.89543 21 5Z" fill="#F5F5F5"/>
<path d="M63.9708 5.96378C63.4547 6.65213 62.8309 7.25258 62.1235 7.74195C62.1235 7.92177 62.1235 8.10158 62.1235 8.29139C62.1292 11.5568 60.8249 14.6879 58.5029 16.9828C56.181 19.2777 53.0357 20.5443 49.7721 20.4988C47.8854 20.5051 46.0228 20.0743 44.3303 19.2401C44.239 19.2003 44.1802 19.11 44.1805 19.0103V18.9005C44.1805 18.757 44.2968 18.6407 44.4401 18.6407C46.2947 18.5796 48.0832 17.9366 49.5524 16.8026C47.8738 16.7688 46.3634 15.7744 45.6683 14.2453C45.6332 14.1617 45.6441 14.0659 45.6971 13.9925C45.7502 13.919 45.8376 13.8785 45.9279 13.8856C46.4381 13.9369 46.9534 13.8894 47.4456 13.7458C45.5925 13.3611 44.2001 11.8227 44.0008 9.93969C43.9937 9.84936 44.0342 9.76187 44.1076 9.70882C44.181 9.65577 44.2768 9.64483 44.3603 9.67996C44.8576 9.89939 45.3944 10.015 45.9379 10.0196C44.3141 8.95384 43.6127 6.92672 44.2305 5.08469C44.2942 4.9057 44.4474 4.77347 44.6337 4.7366C44.82 4.69972 45.012 4.76365 45.1391 4.90487C47.3303 7.23695 50.341 8.62662 53.5364 8.78088C53.4546 8.45427 53.4143 8.11862 53.4166 7.78191C53.4465 6.01636 54.5389 4.44357 56.1825 3.79986C57.826 3.15615 59.6953 3.56893 60.9153 4.84494C61.747 4.68651 62.551 4.40716 63.3018 4.01579C63.3568 3.98145 63.4265 3.98145 63.4815 4.01579C63.5158 4.07081 63.5158 4.14058 63.4815 4.1956C63.1178 5.02835 62.5035 5.7268 61.7241 6.19355C62.4066 6.1144 63.0771 5.95341 63.7211 5.71404C63.7754 5.67713 63.8466 5.67713 63.9009 5.71404C63.9463 5.73482 63.9802 5.77457 63.9937 5.82269C64.0072 5.87081 63.9988 5.92242 63.9708 5.96378Z" fill="#F5F5F5"/>
<path d="M100 3H92C89.2386 3 87 5.23858 87 8V16C87 18.7614 89.2386 21 92 21H100C102.761 21 105 18.7614 105 16V8C105 5.23858 102.761 3 100 3ZM103.25 16C103.245 17.7926 101.793 19.2445 100 19.25H92C90.2074 19.2445 88.7555 17.7926 88.75 16V8C88.7555 6.20735 90.2074 4.75549 92 4.75H100C101.793 4.75549 103.245 6.20735 103.25 8V16ZM101.75 7.25C101.75 7.80228 101.302 8.25 100.75 8.25C100.198 8.25 99.75 7.80228 99.75 7.25C99.75 6.69772 100.198 6.25 100.75 6.25C101.302 6.25 101.75 6.69772 101.75 7.25ZM96 7.5C93.5147 7.5 91.5 9.51472 91.5 12C91.5 14.4853 93.5147 16.5 96 16.5C98.4853 16.5 100.5 14.4853 100.5 12C100.503 10.8057 100.029 9.65957 99.1849 8.81508C98.3404 7.97059 97.1943 7.49734 96 7.5ZM96 14.75C94.4812 14.75 93.25 13.5188 93.25 12C93.25 10.4812 94.4812 9.25 96 9.25C97.5188 9.25 98.75 10.4812 98.75 12C98.75 13.5188 97.5188 14.75 96 14.75Z" fill="#F5F5F5"/>
<path d="M143 20H133C130 20 128 18 128 15V9C128 6 130 4 133 4H143C146 4 148 6 148 9V15C148 18 146 20 143 20Z" fill="#F5F5F5"/>
<path d="M137.4 9.50006L139.9 11.0001C140.8 11.6001 140.8 12.5001 139.9 13.1001L137.4 14.6001C136.4 15.2001 135.6 14.7001 135.6 13.6001V10.6001C135.6 9.30006 136.4 8.90006 137.4 9.50006Z" fill="#063D63" stroke="#063D63" stroke-miterlimit="10" stroke-linecap="round" stroke-linejoin="round"/>
</svg>
